<svg width="26" height="116" viewBox="0 0 26 116" fill="none" xmlns="http://www.w3.org/2000/svg">
<path d="M8.064 24.3113C6.736 24.3113 5.536 23.9753 4.464 23.3033C3.408 22.6313 2.576 21.6553 1.968 20.3753C1.36 19.0793 1.056 17.5113 1.056 15.6713C1.056 13.8313 1.36 12.2713 1.968 10.9913C2.576 9.69529 3.408 8.71129 4.464 8.03929C5.536 7.36729 6.736 7.03129 8.064 7.03129C9.408 7.03129 10.608 7.36729 11.664 8.03929C12.72 8.71129 13.552 9.69529 14.16 10.9913C14.784 12.2713 15.096 13.8313 15.096 15.6713C15.096 17.5113 14.784 19.0793 14.16 20.3753C13.552 21.6553 12.72 22.6313 11.664 23.3033C10.608 23.9753 9.408 24.3113 8.064 24.3113ZM8.064 21.5993C8.848 21.5993 9.528 21.3913 10.104 20.9753C10.68 20.5433 11.128 19.8873 11.448 19.0073C11.784 18.1273 11.952 17.0153 11.952 15.6713C11.952 14.3113 11.784 13.1993 11.448 12.3353C11.128 11.4553 10.68 10.8073 10.104 10.3913C9.528 9.95929 8.848 9.74329 8.064 9.74329C7.312 9.74329 6.64 9.95929 6.048 10.3913C5.472 10.8073 5.016 11.4553 4.68 12.3353C4.36 13.1993 4.2 14.3113 4.2 15.6713C4.2 17.0153 4.36 18.1273 4.68 19.0073C5.016 19.8873 5.472 20.5433 6.048 20.9753C6.64 21.3913 7.312 21.5993 8.064 21.5993ZM19.869 24.0713V8.47129L21.237 9.88729H16.317V7.27129H22.989V24.0713H19.869Z" fill="#C8DDFF"/>
<path d="M12.2929 114.778C12.6834 115.169 13.3166 115.169 13.7071 114.778L20.0711 108.414C20.4616 108.024 20.4616 107.391 20.0711 107C19.6805 106.61 19.0474 106.61 18.6569 107L13 112.657L7.34314 107C6.95262 106.61 6.31945 106.61 5.92893 107C5.53841 107.391 5.53841 108.024 5.92893 108.414L12.2929 114.778ZM12 46.0713L12 114.071L14 114.071L14 46.0713L12 46.0713Z" fill="#C8DDFF"/>
</svg>
