<svg width="31" height="116" viewBox="0 0 31 116" fill="none" xmlns="http://www.w3.org/2000/svg">
<path d="M8.064 24.3113C6.736 24.3113 5.536 23.9753 4.464 23.3033C3.408 22.6313 2.576 21.6553 1.968 20.3753C1.36 19.0793 1.056 17.5113 1.056 15.6713C1.056 13.8313 1.36 12.2713 1.968 10.9913C2.576 9.69529 3.408 8.71129 4.464 8.03929C5.536 7.36729 6.736 7.03129 8.064 7.03129C9.408 7.03129 10.608 7.36729 11.664 8.03929C12.72 8.71129 13.552 9.69529 14.16 10.9913C14.784 12.2713 15.096 13.8313 15.096 15.6713C15.096 17.5113 14.784 19.0793 14.16 20.3753C13.552 21.6553 12.72 22.6313 11.664 23.3033C10.608 23.9753 9.408 24.3113 8.064 24.3113ZM8.064 21.5993C8.848 21.5993 9.528 21.3913 10.104 20.9753C10.68 20.5433 11.128 19.8873 11.448 19.0073C11.784 18.1273 11.952 17.0153 11.952 15.6713C11.952 14.3113 11.784 13.1993 11.448 12.3353C11.128 11.4553 10.68 10.8073 10.104 10.3913C9.528 9.95929 8.848 9.74329 8.064 9.74329C7.312 9.74329 6.64 9.95929 6.048 10.3913C5.472 10.8073 5.016 11.4553 4.68 12.3353C4.36 13.1993 4.2 14.3113 4.2 15.6713C4.2 17.0153 4.36 18.1273 4.68 19.0073C5.016 19.8873 5.472 20.5433 6.048 20.9753C6.64 21.3913 7.312 21.5993 8.064 21.5993ZM16.965 24.0713V21.9833L23.637 15.6473C24.197 15.1193 24.613 14.6553 24.885 14.2553C25.157 13.8553 25.333 13.4873 25.413 13.1513C25.509 12.7993 25.557 12.4713 25.557 12.1673C25.557 11.3993 25.293 10.8073 24.765 10.3913C24.237 9.95929 23.461 9.74329 22.437 9.74329C21.621 9.74329 20.877 9.88729 20.205 10.1753C19.549 10.4633 18.981 10.9033 18.501 11.4953L16.317 9.81529C16.973 8.93529 17.853 8.25529 18.957 7.77529C20.077 7.27929 21.325 7.03129 22.701 7.03129C23.917 7.03129 24.973 7.23129 25.869 7.63129C26.781 8.01529 27.477 8.56729 27.957 9.28729C28.453 10.0073 28.701 10.8633 28.701 11.8553C28.701 12.3993 28.629 12.9433 28.485 13.4873C28.341 14.0153 28.069 14.5753 27.669 15.1673C27.269 15.7593 26.685 16.4233 25.917 17.1593L20.181 22.6073L19.533 21.4313H29.349V24.0713H16.965Z" fill="#C8DDFF"/>
<path d="M14.7929 114.778C15.1834 115.169 15.8166 115.169 16.2071 114.778L22.5711 108.414C22.9616 108.024 22.9616 107.391 22.5711 107C22.1805 106.61 21.5474 106.61 21.1569 107L15.5 112.657L9.84314 107C9.45262 106.61 8.81945 106.61 8.42893 107C8.03841 107.391 8.03841 108.024 8.42893 108.414L14.7929 114.778ZM14.5 46.0713L14.5 114.071L16.5 114.071L16.5 46.0713L14.5 46.0713Z" fill="#C8DDFF"/>
</svg>
