<svg width="201" height="50" viewBox="0 0 201 50" fill="none" xmlns="http://www.w3.org/2000/svg">
<path d="M13.44 39.4C11.2267 39.4 9.22667 38.84 7.44 37.72C5.68 36.6 4.29333 34.9733 3.28 32.84C2.26667 30.68 1.76 28.0667 1.76 25C1.76 21.9333 2.26667 19.3333 3.28 17.2C4.29333 15.04 5.68 13.4 7.44 12.28C9.22667 11.16 11.2267 10.6 13.44 10.6C15.68 10.6 17.68 11.16 19.44 12.28C21.2 13.4 22.5867 15.04 23.6 17.2C24.64 19.3333 25.16 21.9333 25.16 25C25.16 28.0667 24.64 30.68 23.6 32.84C22.5867 34.9733 21.2 36.6 19.44 37.72C17.68 38.84 15.68 39.4 13.44 39.4ZM13.44 34.88C14.7467 34.88 15.88 34.5333 16.84 33.84C17.8 33.12 18.5467 32.0267 19.08 30.56C19.64 29.0933 19.92 27.24 19.92 25C19.92 22.7333 19.64 20.88 19.08 19.44C18.5467 17.9733 17.8 16.8933 16.84 16.2C15.88 15.48 14.7467 15.12 13.44 15.12C12.1867 15.12 11.0667 15.48 10.08 16.2C9.12 16.8933 8.36 17.9733 7.8 19.44C7.26667 20.88 7 22.7333 7 25C7 27.24 7.26667 29.0933 7.8 30.56C8.36 32.0267 9.12 33.12 10.08 33.84C11.0667 34.5333 12.1867 34.88 13.44 34.88ZM28.275 39V35.52L39.395 24.96C40.3283 24.08 41.0217 23.3067 41.475 22.64C41.9283 21.9733 42.2217 21.36 42.355 20.8C42.515 20.2133 42.595 19.6667 42.595 19.16C42.595 17.88 42.155 16.8933 41.275 16.2C40.395 15.48 39.1017 15.12 37.395 15.12C36.035 15.12 34.795 15.36 33.675 15.84C32.5817 16.32 31.635 17.0533 30.835 18.04L27.195 15.24C28.2883 13.7733 29.755 12.64 31.595 11.84C33.4617 11.0133 35.5417 10.6 37.835 10.6C39.8617 10.6 41.6217 10.9333 43.115 11.6C44.635 12.24 45.795 13.16 46.595 14.36C47.4217 15.56 47.835 16.9867 47.835 18.64C47.835 19.5467 47.715 20.4533 47.475 21.36C47.235 22.24 46.7817 23.1733 46.115 24.16C45.4483 25.1467 44.475 26.2533 43.195 27.48L33.635 36.56L32.555 34.6H48.915V39H28.275Z" fill="#C8DDFF"/>
<path d="M200.707 25.7071C201.098 25.3166 201.098 24.6834 200.707 24.2929L194.343 17.9289C193.953 17.5384 193.319 17.5384 192.929 17.9289C192.538 18.3195 192.538 18.9526 192.929 19.3431L198.586 25L192.929 30.6569C192.538 31.0474 192.538 31.6805 192.929 32.0711C193.319 32.4616 193.953 32.4616 194.343 32.0711L200.707 25.7071ZM67 26H200V24H67V26Z" fill="#C8DDFF"/>
</svg>
