<svg width="30" height="116" viewBox="0 0 30 116" fill="none" xmlns="http://www.w3.org/2000/svg">
<path d="M8.064 24.3113C6.736 24.3113 5.536 23.9753 4.464 23.3033C3.408 22.6313 2.576 21.6553 1.968 20.3753C1.36 19.0793 1.056 17.5113 1.056 15.6713C1.056 13.8313 1.36 12.2713 1.968 10.9913C2.576 9.69529 3.408 8.71129 4.464 8.03929C5.536 7.36729 6.736 7.03129 8.064 7.03129C9.408 7.03129 10.608 7.36729 11.664 8.03929C12.72 8.71129 13.552 9.69529 14.16 10.9913C14.784 12.2713 15.096 13.8313 15.096 15.6713C15.096 17.5113 14.784 19.0793 14.16 20.3753C13.552 21.6553 12.72 22.6313 11.664 23.3033C10.608 23.9753 9.408 24.3113 8.064 24.3113ZM8.064 21.5993C8.848 21.5993 9.528 21.3913 10.104 20.9753C10.68 20.5433 11.128 19.8873 11.448 19.0073C11.784 18.1273 11.952 17.0153 11.952 15.6713C11.952 14.3113 11.784 13.1993 11.448 12.3353C11.128 11.4553 10.68 10.8073 10.104 10.3913C9.528 9.95929 8.848 9.74329 8.064 9.74329C7.312 9.74329 6.64 9.95929 6.048 10.3913C5.472 10.8073 5.016 11.4553 4.68 12.3353C4.36 13.1993 4.2 14.3113 4.2 15.6713C4.2 17.0153 4.36 18.1273 4.68 19.0073C5.016 19.8873 5.472 20.5433 6.048 20.9753C6.64 21.3913 7.312 21.5993 8.064 21.5993ZM22.2501 24.3113C21.0661 24.3113 19.9061 24.1433 18.7701 23.8073C17.6501 23.4553 16.7061 22.9753 15.9381 22.3673L17.2821 19.9433C17.8901 20.4393 18.6261 20.8393 19.4901 21.1433C20.3541 21.4473 21.2581 21.5993 22.2021 21.5993C23.3221 21.5993 24.1941 21.3753 24.8181 20.9273C25.4421 20.4633 25.7541 19.8393 25.7541 19.0553C25.7541 18.2873 25.4661 17.6793 24.8901 17.2313C24.3141 16.7833 23.3861 16.5593 22.1061 16.5593H20.5701V14.4233L25.3701 8.71129L25.7781 9.88729H16.7541V7.27129H28.2021V9.35929L23.4021 15.0713L21.7701 14.1113H22.7061C24.7701 14.1113 26.3141 14.5753 27.3381 15.5033C28.3781 16.4153 28.8981 17.5913 28.8981 19.0313C28.8981 19.9753 28.6581 20.8473 28.1781 21.6473C27.6981 22.4473 26.9621 23.0953 25.9701 23.5913C24.9941 24.0713 23.7541 24.3113 22.2501 24.3113Z" fill="#C8DDFF"/>
<path d="M14.2929 114.778C14.6834 115.169 15.3166 115.169 15.7071 114.778L22.0711 108.414C22.4616 108.024 22.4616 107.391 22.0711 107C21.6805 106.61 21.0474 106.61 20.6569 107L15 112.657L9.34314 107C8.95262 106.61 8.31945 106.61 7.92893 107C7.53841 107.391 7.53841 108.024 7.92893 108.414L14.2929 114.778ZM14 46.0713L14 114.071L16 114.071L16 46.0713L14 46.0713Z" fill="#C8DDFF"/>
</svg>
