<svg width="33" height="116" viewBox="0 0 33 116" fill="none" xmlns="http://www.w3.org/2000/svg">
<path d="M8.064 24.3113C6.736 24.3113 5.536 23.9753 4.464 23.3033C3.408 22.6313 2.576 21.6553 1.968 20.3753C1.36 19.0793 1.056 17.5113 1.056 15.6713C1.056 13.8313 1.36 12.2713 1.968 10.9913C2.576 9.69529 3.408 8.71129 4.464 8.03929C5.536 7.36729 6.736 7.03129 8.064 7.03129C9.408 7.03129 10.608 7.36729 11.664 8.03929C12.72 8.71129 13.552 9.69529 14.16 10.9913C14.784 12.2713 15.096 13.8313 15.096 15.6713C15.096 17.5113 14.784 19.0793 14.16 20.3753C13.552 21.6553 12.72 22.6313 11.664 23.3033C10.608 23.9753 9.408 24.3113 8.064 24.3113ZM8.064 21.5993C8.848 21.5993 9.528 21.3913 10.104 20.9753C10.68 20.5433 11.128 19.8873 11.448 19.0073C11.784 18.1273 11.952 17.0153 11.952 15.6713C11.952 14.3113 11.784 13.1993 11.448 12.3353C11.128 11.4553 10.68 10.8073 10.104 10.3913C9.528 9.95929 8.848 9.74329 8.064 9.74329C7.312 9.74329 6.64 9.95929 6.048 10.3913C5.472 10.8073 5.016 11.4553 4.68 12.3353C4.36 13.1993 4.2 14.3113 4.2 15.6713C4.2 17.0153 4.36 18.1273 4.68 19.0073C5.016 19.8873 5.472 20.5433 6.048 20.9753C6.64 21.3913 7.312 21.5993 8.064 21.5993ZM16.9644 20.2553V18.0953L25.2444 7.27129H28.5804L20.4204 18.0953L18.8604 17.6153H32.1804V20.2553H16.9644ZM26.1804 24.0713V20.2553L26.2764 17.6153V14.2313H29.2044V24.0713H26.1804Z" fill="#C8DDFF"/>
<path d="M15.7929 114.778C16.1834 115.169 16.8166 115.169 17.2071 114.778L23.5711 108.414C23.9616 108.024 23.9616 107.391 23.5711 107C23.1805 106.61 22.5474 106.61 22.1569 107L16.5 112.657L10.8431 107C10.4526 106.61 9.81945 106.61 9.42893 107C9.03841 107.391 9.03841 108.024 9.42893 108.414L15.7929 114.778ZM15.5 46.0713L15.5 114.071L17.5 114.071L17.5 46.0713L15.5 46.0713Z" fill="#C8DDFF"/>
</svg>
