<svg width="31" height="122" viewBox="0 0 31 122" fill="none" xmlns="http://www.w3.org/2000/svg">
<path d="M8.064 24.3113C6.736 24.3113 5.536 23.9753 4.464 23.3033C3.408 22.6313 2.576 21.6553 1.968 20.3753C1.36 19.0793 1.056 17.5113 1.056 15.6713C1.056 13.8313 1.36 12.2713 1.968 10.9913C2.576 9.69529 3.408 8.71129 4.464 8.03929C5.536 7.36729 6.736 7.03129 8.064 7.03129C9.408 7.03129 10.608 7.36729 11.664 8.03929C12.72 8.71129 13.552 9.69529 14.16 10.9913C14.784 12.2713 15.096 13.8313 15.096 15.6713C15.096 17.5113 14.784 19.0793 14.16 20.3753C13.552 21.6553 12.72 22.6313 11.664 23.3033C10.608 23.9753 9.408 24.3113 8.064 24.3113ZM8.064 21.5993C8.848 21.5993 9.528 21.3913 10.104 20.9753C10.68 20.5433 11.128 19.8873 11.448 19.0073C11.784 18.1273 11.952 17.0153 11.952 15.6713C11.952 14.3113 11.784 13.1993 11.448 12.3353C11.128 11.4553 10.68 10.8073 10.104 10.3913C9.528 9.95929 8.848 9.74329 8.064 9.74329C7.312 9.74329 6.64 9.95929 6.048 10.3913C5.472 10.8073 5.016 11.4553 4.68 12.3353C4.36 13.1993 4.2 14.3113 4.2 15.6713C4.2 17.0153 4.36 18.1273 4.68 19.0073C5.016 19.8873 5.472 20.5433 6.048 20.9753C6.64 21.3913 7.312 21.5993 8.064 21.5993ZM22.7724 24.3113C21.5884 24.3113 20.4284 24.1433 19.2924 23.8073C18.1724 23.4553 17.2284 22.9753 16.4604 22.3673L17.7804 19.9433C18.3884 20.4393 19.1244 20.8393 19.9884 21.1433C20.8684 21.4473 21.7804 21.5993 22.7244 21.5993C23.8284 21.5993 24.6924 21.3673 25.3164 20.9033C25.9564 20.4393 26.2764 19.8153 26.2764 19.0313C26.2764 18.5033 26.1404 18.0393 25.8684 17.6393C25.6124 17.2393 25.1484 16.9353 24.4764 16.7273C23.8204 16.5193 22.9164 16.4153 21.7644 16.4153H17.7084L18.5724 7.27129H28.4364V9.88729H19.7244L21.3564 8.39929L20.7084 15.2393L19.0764 13.7753H22.4604C24.1244 13.7753 25.4604 13.9993 26.4684 14.4473C27.4924 14.8793 28.2364 15.4873 28.7004 16.2713C29.1804 17.0393 29.4204 17.9193 29.4204 18.9113C29.4204 19.8873 29.1804 20.7833 28.7004 21.5993C28.2204 22.4153 27.4844 23.0713 26.4924 23.5673C25.5164 24.0633 24.2764 24.3113 22.7724 24.3113Z" fill="#C8DDFF"/>
<path d="M14.7929 120.778C15.1834 121.169 15.8166 121.169 16.2071 120.778L22.5711 114.414C22.9616 114.024 22.9616 113.391 22.5711 113C22.1805 112.61 21.5474 112.61 21.1569 113L15.5 118.657L9.84314 113C9.45262 112.61 8.81945 112.61 8.42893 113C8.0384 113.391 8.0384 114.024 8.42893 114.414L14.7929 120.778ZM14.5 46.0713L14.5 120.071L16.5 120.071L16.5 46.0713L14.5 46.0713Z" fill="#C8DDFF"/>
</svg>
