<svg width="201" height="50" viewBox="0 0 201 50" fill="none" xmlns="http://www.w3.org/2000/svg">
<path d="M13.44 39.4C11.2267 39.4 9.22667 38.84 7.44 37.72C5.68 36.6 4.29333 34.9733 3.28 32.84C2.26667 30.68 1.76 28.0667 1.76 25C1.76 21.9333 2.26667 19.3333 3.28 17.2C4.29333 15.04 5.68 13.4 7.44 12.28C9.22667 11.16 11.2267 10.6 13.44 10.6C15.68 10.6 17.68 11.16 19.44 12.28C21.2 13.4 22.5867 15.04 23.6 17.2C24.64 19.3333 25.16 21.9333 25.16 25C25.16 28.0667 24.64 30.68 23.6 32.84C22.5867 34.9733 21.2 36.6 19.44 37.72C17.68 38.84 15.68 39.4 13.44 39.4ZM13.44 34.88C14.7467 34.88 15.88 34.5333 16.84 33.84C17.8 33.12 18.5467 32.0267 19.08 30.56C19.64 29.0933 19.92 27.24 19.92 25C19.92 22.7333 19.64 20.88 19.08 19.44C18.5467 17.9733 17.8 16.8933 16.84 16.2C15.88 15.48 14.7467 15.12 13.44 15.12C12.1867 15.12 11.0667 15.48 10.08 16.2C9.12 16.8933 8.36 17.9733 7.8 19.44C7.26667 20.88 7 22.7333 7 25C7 27.24 7.26667 29.0933 7.8 30.56C8.36 32.0267 9.12 33.12 10.08 33.84C11.0667 34.5333 12.1867 34.88 13.44 34.88ZM37.9541 39.4C35.9807 39.4 34.0474 39.12 32.1541 38.56C30.2874 37.9733 28.7141 37.1733 27.4341 36.16L29.6341 32.12C30.6474 32.9467 31.8741 33.6133 33.3141 34.12C34.7807 34.6267 36.3007 34.88 37.8741 34.88C39.7141 34.88 41.1541 34.4933 42.1941 33.72C43.2607 32.9467 43.7941 31.9067 43.7941 30.6C43.7941 29.72 43.5674 28.9467 43.1141 28.28C42.6874 27.6133 41.9141 27.1067 40.7941 26.76C39.7007 26.4133 38.1941 26.24 36.2741 26.24H29.5141L30.9541 11H47.3941V15.36H32.8741L35.5941 12.88L34.5141 24.28L31.7941 21.84H37.4341C40.2074 21.84 42.4341 22.2133 44.1141 22.96C45.8207 23.68 47.0607 24.6933 47.8341 26C48.6341 27.28 49.0341 28.7467 49.0341 30.4C49.0341 32.0267 48.6341 33.52 47.8341 34.88C47.0341 36.24 45.8074 37.3333 44.1541 38.16C42.5274 38.9867 40.4607 39.4 37.9541 39.4Z" fill="#C8DDFF"/>
<path d="M200.707 25.7071C201.098 25.3166 201.098 24.6834 200.707 24.2929L194.343 17.9289C193.953 17.5384 193.319 17.5384 192.929 17.9289C192.538 18.3195 192.538 18.9526 192.929 19.3431L198.586 25L192.929 30.6569C192.538 31.0474 192.538 31.6805 192.929 32.0711C193.319 32.4616 193.953 32.4616 194.343 32.0711L200.707 25.7071ZM67 26H200V24H67V26Z" fill="#C8DDFF"/>
</svg>
