<svg width="200" height="50" viewBox="0 0 200 50" fill="none" xmlns="http://www.w3.org/2000/svg">
<path d="M13.44 39.4C11.2267 39.4 9.22667 38.84 7.44 37.72C5.68 36.6 4.29333 34.9733 3.28 32.84C2.26667 30.68 1.76 28.0667 1.76 25C1.76 21.9333 2.26667 19.3333 3.28 17.2C4.29333 15.04 5.68 13.4 7.44 12.28C9.22667 11.16 11.2267 10.6 13.44 10.6C15.68 10.6 17.68 11.16 19.44 12.28C21.2 13.4 22.5867 15.04 23.6 17.2C24.64 19.3333 25.16 21.9333 25.16 25C25.16 28.0667 24.64 30.68 23.6 32.84C22.5867 34.9733 21.2 36.6 19.44 37.72C17.68 38.84 15.68 39.4 13.44 39.4ZM13.44 34.88C14.7467 34.88 15.88 34.5333 16.84 33.84C17.8 33.12 18.5467 32.0267 19.08 30.56C19.64 29.0933 19.92 27.24 19.92 25C19.92 22.7333 19.64 20.88 19.08 19.44C18.5467 17.9733 17.8 16.8933 16.84 16.2C15.88 15.48 14.7467 15.12 13.44 15.12C12.1867 15.12 11.0667 15.48 10.08 16.2C9.12 16.8933 8.36 17.9733 7.8 19.44C7.26667 20.88 7 22.7333 7 25C7 27.24 7.26667 29.0933 7.8 30.56C8.36 32.0267 9.12 33.12 10.08 33.84C11.0667 34.5333 12.1867 34.88 13.44 34.88ZM40.7941 39.4C38.2607 39.4 36.0874 38.8667 34.2741 37.8C32.4607 36.7067 31.0741 35.1333 30.1141 33.08C29.1541 31.0267 28.6741 28.4933 28.6741 25.48C28.6741 22.28 29.2474 19.5733 30.3941 17.36C31.5674 15.1467 33.1807 13.4667 35.2341 12.32C37.3141 11.1733 39.7007 10.6 42.3941 10.6C43.8074 10.6 45.1541 10.7467 46.4341 11.04C47.7407 11.3333 48.8474 11.7867 49.7541 12.4L47.8341 16.32C47.0607 15.8133 46.2207 15.4667 45.3141 15.28C44.4341 15.0667 43.5007 14.96 42.5141 14.96C39.8741 14.96 37.7807 15.7733 36.2341 17.4C34.6874 19.0267 33.9141 21.4267 33.9141 24.6C33.9141 25.1067 33.9274 25.7067 33.9541 26.4C33.9807 27.0667 34.0741 27.7467 34.2341 28.44L32.6341 26.68C33.1141 25.5867 33.7674 24.68 34.5941 23.96C35.4474 23.2133 36.4474 22.6533 37.5941 22.28C38.7674 21.9067 40.0341 21.72 41.3941 21.72C43.2341 21.72 44.8741 22.08 46.3141 22.8C47.7541 23.4933 48.9007 24.4933 49.7541 25.8C50.6074 27.08 51.0341 28.5867 51.0341 30.32C51.0341 32.16 50.5807 33.76 49.6741 35.12C48.7674 36.48 47.5407 37.5333 45.9941 38.28C44.4474 39.0267 42.7141 39.4 40.7941 39.4ZM40.5141 35.32C41.5807 35.32 42.5274 35.1333 43.3541 34.76C44.1807 34.36 44.8207 33.8 45.2741 33.08C45.7541 32.36 45.9941 31.52 45.9941 30.56C45.9941 29.0933 45.4874 27.9333 44.4741 27.08C43.4607 26.2267 42.1007 25.8 40.3941 25.8C39.2741 25.8 38.2874 26.0133 37.4341 26.44C36.6074 26.84 35.9407 27.4 35.4341 28.12C34.9541 28.84 34.7141 29.6667 34.7141 30.6C34.7141 31.4533 34.9407 32.24 35.3941 32.96C35.8474 33.68 36.5007 34.2533 37.3541 34.68C38.2341 35.1067 39.2874 35.32 40.5141 35.32Z" fill="#C8DDFF"/>
<path d="M144.707 25.7071C145.098 25.3166 145.098 24.6834 144.707 24.2929L138.343 17.9289C137.953 17.5384 137.319 17.5384 136.929 17.9289C136.538 18.3195 136.538 18.9526 136.929 19.3431L142.586 25L136.929 30.6569C136.538 31.0474 136.538 31.6805 136.929 32.0711C137.319 32.4616 137.953 32.4616 138.343 32.0711L144.707 25.7071ZM68 26H144V24H68V26Z" fill="#C8DDFF"/>
<rect x="160" y="5" width="40" height="40" rx="20" fill="#C8DDFF"/>
<path d="M177.999 28.1709L187.191 18.9785L188.605 20.3927L177.999 30.9993L171.635 24.6354L173.049 23.2212L177.999 28.1709Z" fill="#0962F3"/>
</svg>
