<svg width="40" height="140" viewBox="0 0 40 140" fill="none" xmlns="http://www.w3.org/2000/svg">
<path d="M12.064 24.3113C10.736 24.3113 9.536 23.9753 8.464 23.3033C7.408 22.6313 6.576 21.6553 5.968 20.3753C5.36 19.0793 5.056 17.5113 5.056 15.6713C5.056 13.8313 5.36 12.2713 5.968 10.9913C6.576 9.69529 7.408 8.71129 8.464 8.03929C9.536 7.36729 10.736 7.03129 12.064 7.03129C13.408 7.03129 14.608 7.36729 15.664 8.03929C16.72 8.71129 17.552 9.69529 18.16 10.9913C18.784 12.2713 19.096 13.8313 19.096 15.6713C19.096 17.5113 18.784 19.0793 18.16 20.3753C17.552 21.6553 16.72 22.6313 15.664 23.3033C14.608 23.9753 13.408 24.3113 12.064 24.3113ZM12.064 21.5993C12.848 21.5993 13.528 21.3913 14.104 20.9753C14.68 20.5433 15.128 19.8873 15.448 19.0073C15.784 18.1273 15.952 17.0153 15.952 15.6713C15.952 14.3113 15.784 13.1993 15.448 12.3353C15.128 11.4553 14.68 10.8073 14.104 10.3913C13.528 9.95929 12.848 9.74329 12.064 9.74329C11.312 9.74329 10.64 9.95929 10.048 10.3913C9.472 10.8073 9.016 11.4553 8.68 12.3353C8.36 13.1993 8.2 14.3113 8.2 15.6713C8.2 17.0153 8.36 18.1273 8.68 19.0073C9.016 19.8873 9.472 20.5433 10.048 20.9753C10.64 21.3913 11.312 21.5993 12.064 21.5993ZM28.4764 24.3113C26.9564 24.3113 25.6524 23.9913 24.5644 23.3513C23.4764 22.6953 22.6444 21.7513 22.0684 20.5193C21.4924 19.2873 21.2044 17.7673 21.2044 15.9593C21.2044 14.0393 21.5484 12.4153 22.2364 11.0873C22.9404 9.75929 23.9084 8.75129 25.1404 8.06329C26.3884 7.37529 27.8204 7.03129 29.4364 7.03129C30.2844 7.03129 31.0924 7.11929 31.8604 7.29529C32.6444 7.47129 33.3084 7.74329 33.8524 8.11129L32.7004 10.4633C32.2364 10.1593 31.7324 9.95129 31.1884 9.83929C30.6604 9.71129 30.1004 9.64729 29.5084 9.64729C27.9244 9.64729 26.6684 10.1353 25.7404 11.1113C24.8124 12.0873 24.3484 13.5273 24.3484 15.4313C24.3484 15.7353 24.3564 16.0953 24.3724 16.5113C24.3884 16.9113 24.4444 17.3193 24.5404 17.7353L23.5804 16.6793C23.8684 16.0233 24.2604 15.4793 24.7564 15.0473C25.2684 14.5993 25.8684 14.2633 26.5564 14.0393C27.2604 13.8153 28.0204 13.7033 28.8364 13.7033C29.9404 13.7033 30.9244 13.9193 31.7884 14.3513C32.6524 14.7673 33.3404 15.3673 33.8524 16.1513C34.3644 16.9193 34.6204 17.8233 34.6204 18.8633C34.6204 19.9673 34.3484 20.9273 33.8044 21.7433C33.2604 22.5593 32.5244 23.1913 31.5964 23.6393C30.6684 24.0873 29.6284 24.3113 28.4764 24.3113ZM28.3084 21.8633C28.9484 21.8633 29.5164 21.7513 30.0124 21.5273C30.5084 21.2873 30.8924 20.9513 31.1644 20.5193C31.4524 20.0873 31.5964 19.5833 31.5964 19.0073C31.5964 18.1273 31.2924 17.4313 30.6844 16.9193C30.0764 16.4073 29.2604 16.1513 28.2364 16.1513C27.5644 16.1513 26.9724 16.2793 26.4604 16.5353C25.9644 16.7753 25.5644 17.1113 25.2604 17.5433C24.9724 17.9753 24.8284 18.4713 24.8284 19.0313C24.8284 19.5433 24.9644 20.0153 25.2364 20.4473C25.5084 20.8793 25.9004 21.2233 26.4124 21.4793C26.9404 21.7353 27.5724 21.8633 28.3084 21.8633Z" fill="#C8DDFF"/>
<path d="M19.2929 83.7784C19.6834 84.1689 20.3166 84.1689 20.7071 83.7784L27.0711 77.4144C27.4616 77.0239 27.4616 76.3907 27.0711 76.0002C26.6805 75.6097 26.0474 75.6097 25.6569 76.0002L20 81.6571L14.3431 76.0002C13.9526 75.6097 13.3195 75.6097 12.9289 76.0002C12.5384 76.3907 12.5384 77.0239 12.9289 77.4144L19.2929 83.7784ZM19 46.0713L19 83.0713L21 83.0713L21 46.0713L19 46.0713Z" fill="#C8DDFF"/>
<rect y="99.0713" width="40" height="40" rx="20" fill="#C8DDFF"/>
<path d="M17.9987 122.242L27.1911 113.05L28.6053 114.464L17.9987 125.071L11.6348 118.707L13.049 117.292L17.9987 122.242Z" fill="#0962F3"/>
</svg>
