<svg width="48" height="49" viewBox="0 0 48 49" fill="none" xmlns="http://www.w3.org/2000/svg">
<rect width="48" height="48" transform="translate(0 0.0712891)" fill="white" fill-opacity="0.08"/>
<g clip-path="url(#clip0_290_5017)">
<path d="M29.8552 18.0713H29.9992C33.3072 18.0713 35.9992 15.3793 35.9992 12.0713V6.07129C35.9992 2.76329 33.3072 0.0712891 29.9992 0.0712891H17.9992C14.6912 0.0712891 11.9992 2.76329 11.9992 6.07129V12.0713C11.9992 15.3793 14.6912 18.0713 17.9992 18.0713H18.4032L22.0712 21.3053C22.6512 21.8173 23.3772 22.0733 24.1032 22.0733C24.8192 22.0733 25.5352 21.8213 26.0992 21.3213L29.8552 18.0733V18.0713ZM24.1012 17.7593L20.4812 14.5713C20.1152 14.2493 19.6452 14.0713 19.1592 14.0713H17.9992C16.8952 14.0713 15.9992 13.1733 15.9992 12.0713V6.07129C15.9992 4.96929 16.8952 4.07129 17.9992 4.07129H29.9992C31.1032 4.07129 31.9992 4.96929 31.9992 6.07129V12.0713C31.9992 13.1733 31.1032 14.0713 29.9992 14.0713H29.1112C28.6312 14.0713 28.1652 14.2433 27.8032 14.5593L24.1012 17.7613V17.7593ZM10.9992 36.0713C14.8592 36.0713 17.9992 32.9313 17.9992 29.0713C17.9992 25.2113 14.8592 22.0713 10.9992 22.0713C7.13916 22.0713 3.99916 25.2113 3.99916 29.0713C3.99916 32.9313 7.13916 36.0713 10.9992 36.0713ZM10.9992 26.0713C12.6532 26.0713 13.9992 27.4173 13.9992 29.0713C13.9992 30.7253 12.6532 32.0713 10.9992 32.0713C9.34516 32.0713 7.99916 30.7253 7.99916 29.0713C7.99916 27.4173 9.34516 26.0713 10.9992 26.0713ZM29.9992 29.0713C29.9992 32.9313 33.1392 36.0713 36.9992 36.0713C40.8592 36.0713 43.9992 32.9313 43.9992 29.0713C43.9992 25.2113 40.8592 22.0713 36.9992 22.0713C33.1392 22.0713 29.9992 25.2113 29.9992 29.0713ZM36.9992 26.0713C38.6532 26.0713 39.9992 27.4173 39.9992 29.0713C39.9992 30.7253 38.6532 32.0713 36.9992 32.0713C35.3452 32.0713 33.9992 30.7253 33.9992 29.0713C33.9992 27.4173 35.3452 26.0713 36.9992 26.0713ZM21.8732 45.3693C22.2592 46.4033 21.7372 47.5573 20.7032 47.9453C20.4712 48.0313 20.2352 48.0733 19.9992 48.0733C19.1912 48.0733 18.4272 47.5773 18.1252 46.7753C17.0712 43.9633 14.2072 42.0733 10.9992 42.0733C7.79116 42.0733 4.92716 43.9633 3.87316 46.7753C3.48516 47.8113 2.33116 48.3273 1.29716 47.9453C0.263164 47.5573 -0.258836 46.4033 0.127164 45.3693C1.76316 41.0033 6.13316 38.0713 11.0012 38.0713C15.8692 38.0713 20.2352 41.0033 21.8732 45.3693ZM46.7032 47.9453C46.4712 48.0313 46.2352 48.0733 45.9992 48.0733C45.1912 48.0733 44.4272 47.5773 44.1252 46.7753C43.0712 43.9633 40.2072 42.0733 36.9992 42.0733C33.7912 42.0733 30.9272 43.9633 29.8732 46.7753C29.4852 47.8113 28.3312 48.3273 27.2972 47.9453C26.2632 47.5573 25.7412 46.4033 26.1272 45.3693C27.7632 41.0033 32.1332 38.0713 37.0012 38.0713C41.8692 38.0713 46.2372 41.0033 47.8752 45.3693C48.2612 46.4033 47.7392 47.5573 46.7052 47.9453H46.7032Z" fill="#FF7A00"/>
</g>
<defs>
<clipPath id="clip0_290_5017">
<rect y="0.0712891" width="48" height="48" fill="white"/>
</clipPath>
</defs>
</svg>
