<svg width="48" height="49" viewBox="0 0 48 49" fill="none" xmlns="http://www.w3.org/2000/svg">
<rect width="48" height="48" transform="translate(0 0.0712891)" fill="white" fill-opacity="0.08"/>
<g clip-path="url(#clip0_290_5024)">
<path d="M42 12.5573C42.0028 11.5061 41.797 10.4647 41.3947 9.49352C40.9924 8.52233 40.4014 7.64057 39.656 6.89929L35.172 2.41529C33.6693 0.918967 31.6366 0.076544 29.516 0.0712891L12 0.0712891C10.4087 0.0712891 8.88258 0.70343 7.75736 1.82865C6.63214 2.95387 6 4.47999 6 6.07129V48.0713H42V12.5573ZM36.828 9.72729C36.9286 9.83642 37.0227 9.95128 37.11 10.0713H32V4.96129C32.12 5.04857 32.2349 5.14273 32.344 5.24329L36.828 9.72729ZM10 44.0713V6.07129C10 5.54086 10.2107 5.03215 10.5858 4.65708C10.9609 4.282 11.4696 4.07129 12 4.07129H28V14.0713H38V44.0713H10ZM16 18.0713H32V22.0713H16V18.0713ZM16 26.0713H32V30.0713H16V26.0713ZM28.036 33.6993L31.966 34.4313C31.584 36.5253 29.956 40.0713 26.27 40.0713C24.8233 40.07 23.4209 39.5715 22.298 38.6593C21.67 38.2133 21.45 38.0713 20.974 38.0713C20.258 38.3428 19.6262 38.798 19.142 39.3913L16.142 36.7573C17.3518 35.2792 19.08 34.3185 20.974 34.0713C22.3037 34.0872 23.5882 34.5556 24.616 35.3993C25.0643 35.8217 25.6542 36.0613 26.27 36.0713C27.516 36.0713 28.03 33.7253 28.036 33.6993Z" fill="#FF7A00"/>
</g>
<defs>
<clipPath id="clip0_290_5024">
<rect y="0.0712891" width="48" height="48" fill="white"/>
</clipPath>
</defs>
</svg>
