<svg width="48" height="49" viewBox="0 0 48 49" fill="none" xmlns="http://www.w3.org/2000/svg">
<rect width="48" height="48" transform="translate(0 0.0712891)" fill="white" fill-opacity="0.08"/>
<g clip-path="url(#clip0_290_5012)">
<path d="M10 44.0713H28V38.0713H36.494C37.494 38.0713 38.346 37.3253 38.476 36.3333L39.836 26.0713H43.816L42.886 23.9513C40.736 19.0213 38.466 13.8653 36.398 11.3073C32.52 6.12529 26.42 3.51929 20 4.20929V0.205289C27.646 -0.476711 34.896 2.67529 39.552 8.85129C41.942 11.8393 44.21 16.9813 46.552 22.3533L48 25.6473V30.0713H43.34L42.442 36.8573C42.052 39.8293 39.494 42.0713 36.494 42.0713H32V48.0713H6V40.0713H10V44.0713ZM16 0.0712891V16.0713H0V0.0712891H16ZM14.648 4.93129L11.852 2.07129L6.766 7.33329L3.774 4.17129L1 7.05329L5.074 11.3573C5.984 12.3133 7.506 12.3193 8.424 11.3713L14.65 4.92929L14.648 4.93129ZM16 36.0713H0V20.0713H16V36.0713ZM12 24.0713H4V32.0713H12V24.0713Z" fill="#FF7A00"/>
</g>
<defs>
<clipPath id="clip0_290_5012">
<rect y="0.0712891" width="48" height="48" fill="white"/>
</clipPath>
</defs>
</svg>
