<svg width="48" height="49" viewBox="0 0 48 49" fill="none" xmlns="http://www.w3.org/2000/svg">
<rect width="48" height="48" transform="translate(0 0.0712891)" fill="white" fill-opacity="0.08"/>
<g clip-path="url(#clip0_290_5030)">
<path d="M39.898 11.1433L32.93 4.17129C30.284 1.52729 26.768 0.0712891 23.03 0.0712891H14C8.486 0.0712891 4 4.55729 4 10.0713V38.0713C4 43.5853 8.486 48.0713 14 48.0713H34C39.514 48.0713 44 43.5853 44 38.0713V21.0413C44 17.2993 42.542 13.7873 39.898 11.1433ZM37.07 13.9733C37.706 14.6073 38.244 15.3133 38.68 16.0733H29.998C28.894 16.0733 27.998 15.1753 27.998 14.0733V5.38929C28.758 5.82529 29.464 6.36329 30.1 6.99929L37.068 13.9713L37.07 13.9733ZM40 38.0733C40 41.3813 37.308 44.0733 34 44.0733H14C10.692 44.0733 8 41.3813 8 38.0733V10.0713C8 6.76329 10.692 4.07129 14 4.07129H23.03C23.356 4.07129 23.68 4.08729 24 4.11729V14.0713C24 17.3793 26.692 20.0713 30 20.0713H39.954C39.984 20.3913 40 20.7153 40 21.0413V38.0733ZM31.414 32.2833C32.196 33.0633 32.196 34.3293 31.414 35.1113L28.188 38.3393C27.034 39.4933 25.516 40.0713 24 40.0713C22.484 40.0713 20.966 39.4933 19.812 38.3393L16.586 35.1113C15.804 34.3293 15.804 33.0633 16.586 32.2833C17.368 31.5013 18.632 31.5013 19.414 32.2833L22 34.8693V26.0733C22 24.9693 22.894 24.0733 24 24.0733C25.106 24.0733 26 24.9693 26 26.0733V34.8693L28.586 32.2833C29.368 31.5013 30.632 31.5013 31.414 32.2833Z" fill="#FF7A00"/>
</g>
<defs>
<clipPath id="clip0_290_5030">
<rect y="0.0712891" width="48" height="48" fill="white"/>
</clipPath>
</defs>
</svg>
