<svg width="48" height="49" viewBox="0 0 48 49" fill="none" xmlns="http://www.w3.org/2000/svg">
<rect width="48" height="48" transform="translate(0 0.0712891)" fill="white" fill-opacity="0.08"/>
<g clip-path="url(#clip0_290_5006)">
<path d="M20 14.0713V10.0713H30V14.0713H20ZM16 20.0713H10V24.0713H16V20.0713ZM4 44.0713V6.07329C4 4.96929 4.896 4.07329 6 4.07329H34C35.102 4.07329 36 4.96729 36 6.07129V12.0713V16.4993C37.416 16.9013 38.764 17.4973 40 18.2133V14.0713V6.07129C40 2.76329 37.308 0.0712891 34 0.0712891H6C2.69 0.0712891 0 2.76529 0 6.07329V48.0713H16V48.0633L31.842 48.0693C27.856 48.0313 24.234 46.5173 21.452 44.0713H4ZM47.106 44.3493L44.278 47.1773L38.946 41.8453C36.984 43.2413 34.592 44.0713 32 44.0713C25.372 44.0713 20 38.6993 20 32.0713C20 25.4433 25.372 20.0713 32 20.0713C38.628 20.0713 44 25.4433 44 32.0713C44 34.6633 43.17 37.0553 41.774 39.0173L47.106 44.3493ZM40.718 29.5593L37.922 26.6993L30.694 34.1053L26.262 29.5033L23.488 32.3853L27.852 36.9213C29.384 38.4513 32.01 38.4473 33.498 36.9593L33.506 36.9513L40.72 29.5593H40.718ZM10 34.0713H16V30.0713H10V34.0713ZM16 10.0713H10V14.0713H16V10.0713Z" fill="#FF7A00"/>
</g>
<defs>
<clipPath id="clip0_290_5006">
<rect width="48" height="48" fill="white" transform="translate(0 0.0712891)"/>
</clipPath>
</defs>
</svg>
