<svg width="48" height="49" viewBox="0 0 48 49" fill="none" xmlns="http://www.w3.org/2000/svg">
<rect width="48" height="48" transform="translate(0 0.0712891)" fill="white" fill-opacity="0.08"/>
<g clip-path="url(#clip0_290_5000)">
<path d="M26 2.07128C26 1.54085 26.2107 1.03214 26.5858 0.657065C26.9608 0.281992 27.4695 0.0712787 28 0.0712787C33.3025 0.0771018 38.3862 2.18611 42.1357 5.93558C45.8851 9.68504 47.9941 14.7687 48 20.0713C48 20.6017 47.7893 21.1104 47.4142 21.4855C47.0391 21.8606 46.5304 22.0713 46 22.0713C45.4695 22.0713 44.9608 21.8606 44.5858 21.4855C44.2107 21.1104 44 20.6017 44 20.0713C43.9952 15.8293 42.308 11.7624 39.3084 8.76283C36.3089 5.76328 32.242 4.07604 28 4.07128C27.4695 4.07128 26.9608 3.86057 26.5858 3.48549C26.2107 3.11042 26 2.60171 26 2.07128ZM28 12.0713C30.1217 12.0713 32.1565 12.9141 33.6568 14.4144C35.1571 15.9147 36 17.9495 36 20.0713C36 20.6017 36.2107 21.1104 36.5858 21.4855C36.9608 21.8606 37.4695 22.0713 38 22.0713C38.5304 22.0713 39.0391 21.8606 39.4142 21.4855C39.7893 21.1104 40 20.6017 40 20.0713C39.9968 16.8897 38.7315 13.8393 36.4817 11.5895C34.232 9.33976 31.1816 8.07446 28 8.07128C27.4695 8.07128 26.9608 8.28199 26.5858 8.65707C26.2107 9.03214 26 9.54085 26 10.0713C26 10.6017 26.2107 11.1104 26.5858 11.4855C26.9608 11.8606 27.4695 12.0713 28 12.0713ZM46.186 33.5493C47.345 34.7115 47.9959 36.2859 47.9959 37.9273C47.9959 39.5687 47.345 41.1431 46.186 42.3053L44.366 44.4033C27.986 60.0853 -11.874 20.2353 3.56597 3.80328L5.86597 1.80328C7.02951 0.676633 8.58983 0.0533768 10.2094 0.0683483C11.8289 0.0833199 13.3775 0.735316 14.52 1.88328C14.582 1.94528 18.288 6.75928 18.288 6.75928C19.3876 7.91454 19.9998 9.44914 19.9972 11.0441C19.9946 12.639 19.3774 14.1716 18.274 15.3233L15.958 18.2353C17.2397 21.3495 19.1241 24.1798 21.503 26.5635C23.8819 28.9472 26.7083 30.8373 29.82 32.1253L32.75 29.7953C33.9018 28.6927 35.4341 28.0763 37.0286 28.074C38.623 28.0718 40.1571 28.6839 41.312 29.7833C41.312 29.7833 46.124 33.4873 46.186 33.5493ZM43.434 36.4573C43.434 36.4573 38.648 32.7753 38.586 32.7133C38.1739 32.3047 37.6172 32.0755 37.037 32.0755C36.4567 32.0755 35.9 32.3047 35.488 32.7133C35.434 32.7693 31.4 35.9833 31.4 35.9833C31.1281 36.1997 30.8046 36.3415 30.4613 36.3948C30.1179 36.4481 29.7666 36.4111 29.442 36.2873C25.4109 34.7864 21.7494 32.4368 18.7056 29.3974C15.6618 26.3581 13.3068 22.7001 11.8 18.6713C11.6664 18.3422 11.6228 17.9835 11.6738 17.632C11.7247 17.2805 11.8684 16.9489 12.09 16.6713C12.09 16.6713 15.304 12.6353 15.358 12.5833C15.7665 12.1713 15.9957 11.6145 15.9957 11.0343C15.9957 10.454 15.7665 9.89731 15.358 9.48528C15.296 9.42528 11.614 4.63528 11.614 4.63528C11.1958 4.26029 10.65 4.05947 10.0885 4.07397C9.52695 4.08848 8.99226 4.31721 8.59397 4.71328L6.29397 6.71328C-4.99003 20.2813 29.552 52.9073 41.442 41.6713L43.264 39.5713C43.6909 39.1758 43.9474 38.6298 43.9791 38.0487C44.0108 37.4676 43.8153 36.8969 43.434 36.4573Z" fill="#FF7A00"/>
</g>
<defs>
<clipPath id="clip0_290_5000">
<rect width="48" height="48" fill="white" transform="translate(0 0.0712891)"/>
</clipPath>
</defs>
</svg>
