<svg width="64" height="64" viewBox="0 0 64 64" fill="none" xmlns="http://www.w3.org/2000/svg">
<g clip-path="url(#clip0_290_4626)">
<path d="M32 0C25.671 0 19.4841 1.87677 14.2218 5.39297C8.95939 8.90918 4.85787 13.9069 2.43587 19.7541C0.0138652 25.6014 -0.619842 32.0355 0.614885 38.2429C1.84961 44.4503 4.89732 50.1521 9.3726 54.6274C13.8479 59.1027 19.5497 62.1504 25.7571 63.3851C31.9645 64.6199 38.3987 63.9862 44.2459 61.5642C50.0931 59.1421 55.0908 55.0406 58.607 49.7783C62.1232 44.5159 64 38.329 64 32C63.9908 23.5159 60.6165 15.3819 54.6173 9.38272C48.6181 3.38354 40.4841 0.00917622 32 0ZM32 58.6667C26.7258 58.6667 21.5701 57.1027 17.1848 54.1725C12.7995 51.2424 9.38156 47.0776 7.36323 42.2049C5.34489 37.3322 4.8168 31.9704 5.84574 26.7976C6.87468 21.6248 9.41443 16.8732 13.1438 13.1438C16.8732 9.41442 21.6248 6.87467 26.7976 5.84573C31.9704 4.81679 37.3322 5.34488 42.2049 7.36321C47.0776 9.38155 51.2424 12.7995 54.1725 17.1848C57.1027 21.5701 58.6667 26.7258 58.6667 32C58.6589 39.0701 55.8469 45.8483 50.8476 50.8476C45.8483 55.8469 39.0701 58.6589 32 58.6667Z" fill="#FF7A00"/>
<path d="M32.0005 16C31.2933 16 30.615 16.281 30.1149 16.781C29.6148 17.2811 29.3338 17.9594 29.3338 18.6667V30.2L20.3445 35.832C19.7434 36.2075 19.316 36.8065 19.1565 37.4972C18.9969 38.1878 19.1183 38.9135 19.4938 39.5147C19.8694 40.1158 20.4684 40.5432 21.159 40.7027C21.8496 40.8622 22.5754 40.7409 23.1765 40.3653L33.4165 33.9653C33.8034 33.7229 34.1216 33.3852 34.3406 32.9846C34.5596 32.584 34.672 32.1339 34.6672 31.6773V18.6667C34.6672 17.9594 34.3862 17.2811 33.8861 16.781C33.386 16.281 32.7078 16 32.0005 16Z" fill="#FF7A00"/>
</g>
<defs>
<clipPath id="clip0_290_4626">
<rect width="64" height="64" fill="white"/>
</clipPath>
</defs>
</svg>
