<svg width="64" height="64" viewBox="0 0 64 64" fill="none" xmlns="http://www.w3.org/2000/svg">
<path d="M49.3333 13.3333H41.3333C37.656 13.3333 34.6667 16.3253 34.6667 20V29.3333H30.9813L27.3307 22.0293C25.472 18.3093 21.7307 16 17.5733 16C12.296 16 8 20.296 8 25.6107L8.144 35.6907C8.19733 39.408 10.128 42.768 13.312 44.68L20.0427 48.728C20.84 49.208 21.3333 50.0853 21.3333 51.0133V61.3307C21.3333 62.8027 22.5253 63.9973 24 63.9973C25.4747 63.9973 26.6667 62.8027 26.6667 61.3307V51.0133C26.6667 48.224 25.1813 45.5973 22.792 44.1573L16.0587 40.1067C14.4693 39.1493 13.504 37.4693 13.4773 35.6107L13.3333 25.568C13.3333 23.2293 15.2347 21.328 17.5733 21.328C17.9467 21.328 18.312 21.3653 18.6667 21.4347V34.6613C18.6667 36.1333 19.8587 37.328 21.3333 37.328C22.808 37.328 24 36.1333 24 34.6613V27.288L26.2107 31.7093C27.1173 33.5307 28.944 34.6587 30.9813 34.6587H49.3333C53.0107 34.6587 56 31.6667 56 27.992V19.992C56 16.3173 53.0107 13.3253 49.3333 13.3253V13.3333ZM50.6667 28C50.6667 28.736 50.0667 29.3333 49.3333 29.3333H40V20C40 19.264 40.6 18.6667 41.3333 18.6667H49.3333C50.0667 18.6667 50.6667 19.264 50.6667 20V28ZM10.6667 6.66667C10.6667 2.984 13.6507 0 17.3333 0C21.016 0 24 2.984 24 6.66667C24 10.3493 21.016 13.3333 17.3333 13.3333C13.6507 13.3333 10.6667 10.3493 10.6667 6.66667ZM16 53.3333V61.3333C16 62.8053 14.808 64 13.3333 64C11.8587 64 10.6667 62.8053 10.6667 61.3333V53.3333C10.6667 51.8613 11.8587 50.6667 13.3333 50.6667C14.808 50.6667 16 51.8613 16 53.3333Z" fill="#FF7A00"/>
</svg>
