<svg width="64" height="64" viewBox="0 0 64 64" fill="none" xmlns="http://www.w3.org/2000/svg">
<path d="M64 21.3333C64 25.7279 62.3307 30.2373 59.784 34.5706C59.0533 32.7226 57.928 31.0106 56.4 29.5973C57.7973 26.7653 58.6667 23.9679 58.6667 21.3333C58.6667 14.1066 53.1707 7.99994 46.6667 7.99994C40.7067 7.99994 37.312 10.4133 35.024 12.5173L24.8267 21.9813C23.8853 22.9253 23.6613 24.5119 24.392 25.5279C24.8693 26.1919 25.5707 26.5919 26.3627 26.6559C27.1493 26.7279 27.912 26.4399 28.464 25.8826L39.592 15.2293L43.28 19.0799L39.9787 22.2399L52.6373 33.3493C55.6027 35.9519 56.3333 40.3226 54.336 43.5146C53.1067 45.4773 51.0987 46.7973 48.8293 47.1306C48.6747 47.1519 48.5227 47.1706 48.368 47.1839C48.3573 48.5573 47.992 49.9173 47.2427 51.1173C46.0133 53.0799 44.0053 54.3999 41.736 54.7333C41.2427 54.8026 40.752 54.8319 40.2613 54.8079C40.1173 55.8266 39.7707 56.8186 39.208 57.7173C37.9787 59.6799 35.9707 60.9973 33.7013 61.3306C33.32 61.3866 32.9387 61.4133 32.5627 61.4133C30.6773 61.4133 28.848 60.7333 27.4133 59.4719L19.136 52.0479C10.4027 44.1599 0 32.4293 0 21.3333C0 11.0399 7.776 2.66661 17.3333 2.66661C21.608 2.66661 24.888 3.66927 27.4613 4.98394L23.1973 8.94127C21.5707 8.37061 19.6507 7.99994 17.3333 7.99994C10.8293 7.99994 5.33333 14.1066 5.33333 21.3333C5.33333 28.4639 11.5013 37.9653 22.7067 48.0906L30.9573 55.4879C31.4827 55.9493 32.2107 56.1626 32.9307 56.0586C33.6613 55.9519 34.288 55.5386 34.6907 54.8906C35.304 53.9066 35 52.4453 33.9947 51.5653L25.4427 43.4346L29.112 39.5626L39.0373 48.9333C39.5147 49.3493 40.2533 49.5679 40.9627 49.4559C41.6933 49.3493 42.32 48.9333 42.7227 48.2879C43.336 47.3039 43.032 45.8426 42.0267 44.9599L32.5333 36.3653L36.0933 32.3973L46.072 41.2773C46.6053 41.7466 47.336 41.9653 48.0533 41.8533C48.784 41.7466 49.4107 41.3306 49.8133 40.6853C50.4267 39.7013 50.1227 38.2399 49.1173 37.3573L36.1093 25.9413L32.1893 29.6933C30.72 31.1653 28.6907 31.9973 26.5787 31.9973C23.7893 31.9973 21.4453 30.5679 20.0587 28.6426C17.8053 25.5119 18.2613 20.9973 21.12 18.1386L31.4 8.59727C34.1787 6.04527 38.7707 2.66394 46.6613 2.66394C56.2187 2.66394 63.9947 11.0373 63.9947 21.3306L64 21.3333Z" fill="#EE7200"/>
</svg>
