<svg width="122" height="64" viewBox="0 0 122 64" fill="none" xmlns="http://www.w3.org/2000/svg">
<path d="M24.9553 64C20.1252 64 15.8318 62.7416 12.0751 60.2247C8.31843 57.6479 5.36673 53.9925 3.22004 49.2584C1.07335 44.4644 0 38.7116 0 32C0 25.2884 1.07335 19.5655 3.22004 14.8315C5.36673 10.0375 8.31843 6.38202 12.0751 3.86517C15.8318 1.28839 20.1252 0 24.9553 0C29.7853 0 34.0787 1.28839 37.8354 3.86517C41.5921 6.38202 44.5438 10.0375 46.6905 14.8315C48.8968 19.5655 50 25.2884 50 32C50 38.7116 48.8968 44.4644 46.6905 49.2584C44.5438 53.9925 41.5921 57.6479 37.8354 60.2247C34.0787 62.7416 29.7853 64 24.9553 64ZM24.9553 58.0674C28.6524 58.0674 31.8724 57.0787 34.6154 55.1011C37.3584 53.0637 39.5051 50.1273 41.0555 46.2921C42.6058 42.397 43.381 37.633 43.381 32C43.381 26.367 42.6058 21.633 41.0555 17.7978C39.5051 13.9026 37.3584 10.9663 34.6154 8.98877C31.8724 6.95131 28.6524 5.93258 24.9553 5.93258C21.3775 5.93258 18.1872 6.95131 15.3846 8.98877C12.582 10.9663 10.4055 13.9026 8.8551 17.7978C7.30471 21.633 6.52952 26.367 6.52952 32C6.52952 37.633 7.30471 42.397 8.8551 46.2921C10.4055 50.1273 12.582 53.0637 15.3846 55.1011C18.1872 57.0787 21.3775 58.0674 24.9553 58.0674Z" fill="#FF7A00"/>
<g clip-path="url(#clip0_290_4603)">
<path d="M96.6673 40C107.697 40 116.667 31.0293 116.667 20C116.667 8.97067 107.697 0 96.6673 0H84.6673C77.3153 0 71.334 5.98133 71.334 13.3333V34.6667H66.0007C64.5287 34.6667 63.334 35.8587 63.334 37.3333C63.334 38.808 64.5287 40 66.0007 40H71.334V45.3333H66.0007C64.5287 45.3333 63.334 46.5253 63.334 48C63.334 49.4747 64.5287 50.6667 66.0007 50.6667H71.334V61.3333C71.334 62.808 72.5287 64 74.0007 64C75.4727 64 76.6673 62.808 76.6673 61.3333V50.6667H98.0007C99.4727 50.6667 100.667 49.4747 100.667 48C100.667 46.5253 99.4727 45.3333 98.0007 45.3333H76.6673V40H96.6673ZM76.6673 13.3333C76.6673 8.92267 80.2567 5.33333 84.6673 5.33333H96.6673C104.755 5.33333 111.334 11.9147 111.334 20C111.334 28.0853 104.755 34.6667 96.6673 34.6667H76.6673V13.3333Z" fill="#FF7A00"/>
</g>
<defs>
<clipPath id="clip0_290_4603">
<rect width="64" height="64" fill="white" transform="translate(58)"/>
</clipPath>
</defs>
</svg>
