<svg width="64" height="64" viewBox="0 0 64 64" fill="none" xmlns="http://www.w3.org/2000/svg">
<g clip-path="url(#clip0_290_4616)">
<path d="M24 64H2.66667C1.95942 64 1.28115 63.719 0.781049 63.2189C0.280952 62.7188 0 62.0406 0 61.3333C0 60.6261 0.280952 59.9478 0.781049 59.4477C1.28115 58.9476 1.95942 58.6667 2.66667 58.6667H24C24.7072 58.6667 25.3855 58.9476 25.8856 59.4477C26.3857 59.9478 26.6667 60.6261 26.6667 61.3333C26.6667 62.0406 26.3857 62.7188 25.8856 63.2189C25.3855 63.719 24.7072 64 24 64Z" fill="#FF7A00"/>
<path d="M18.6667 53.3333H2.66667C1.95942 53.3333 1.28115 53.0524 0.781049 52.5523C0.280952 52.0522 0 51.3739 0 50.6667C0 49.9594 0.280952 49.2811 0.781049 48.781C1.28115 48.2809 1.95942 48 2.66667 48H18.6667C19.3739 48 20.0522 48.2809 20.5523 48.781C21.0524 49.2811 21.3333 49.9594 21.3333 50.6667C21.3333 51.3739 21.0524 52.0522 20.5523 52.5523C20.0522 53.0524 19.3739 53.3333 18.6667 53.3333Z" fill="#FF7A00"/>
<path d="M13.3333 42.6667H2.66667C1.95942 42.6667 1.28115 42.3857 0.781049 41.8856C0.280952 41.3855 0 40.7073 0 40C0 39.2928 0.280952 38.6145 0.781049 38.1144C1.28115 37.6143 1.95942 37.3333 2.66667 37.3333H13.3333C14.0406 37.3333 14.7189 37.6143 15.219 38.1144C15.719 38.6145 16 39.2928 16 40C16 40.7073 15.719 41.3855 15.219 41.8856C14.7189 42.3857 14.0406 42.6667 13.3333 42.6667Z" fill="#FF7A00"/>
<path d="M34.666 63.88C33.9587 63.9115 33.2679 63.6607 32.7456 63.1829C32.2232 62.705 31.9121 62.0392 31.8806 61.332C31.8492 60.6248 32.0999 59.934 32.5778 59.4116C33.0556 58.8893 33.7214 58.5781 34.4286 58.5467C39.4752 58.0849 44.2857 56.1947 48.2967 53.0975C52.3078 50.0004 55.3532 45.8244 57.0764 41.0587C58.7996 36.2931 59.1292 31.1351 58.0266 26.1888C56.924 21.2426 54.4348 16.7129 50.8507 13.1304C47.2665 9.54787 42.7357 7.06079 37.7889 5.96045C32.8422 4.86012 27.6844 5.19209 22.9195 6.91749C18.1546 8.6429 13.9801 11.6903 10.8847 15.7027C7.78935 19.7152 5.9014 24.5266 5.44197 29.5733C5.37832 30.2777 5.03745 30.928 4.49434 31.3811C3.95123 31.8342 3.25038 32.053 2.54597 31.9893C1.84155 31.9257 1.19128 31.5848 0.738188 31.0417C0.2851 30.4986 0.0663174 29.7977 0.129969 29.0933C0.873673 20.8888 4.75291 13.2872 10.9602 7.87084C17.1674 2.45448 25.2245 -0.359294 33.4541 0.0152328C41.6837 0.38976 49.4519 3.92373 55.1415 9.88151C60.8312 15.8393 64.0039 23.7618 63.9993 32C64.0402 39.9956 61.0698 47.7136 55.679 53.6187C50.2883 59.5238 42.8722 63.1834 34.906 63.8693C34.826 63.8773 34.7433 63.88 34.666 63.88Z" fill="#FF7A00"/>
<path d="M32.0007 16C31.2934 16 30.6151 16.281 30.115 16.781C29.6149 17.2811 29.334 17.9594 29.334 18.6667V32C29.3341 32.7072 29.6152 33.3854 30.1153 33.8853L38.1153 41.8853C38.6183 42.3711 39.2919 42.6399 39.9911 42.6338C40.6902 42.6277 41.3591 42.3473 41.8535 41.8528C42.3479 41.3584 42.6284 40.6896 42.6344 39.9904C42.6405 39.2912 42.3717 38.6176 41.886 38.1147L34.6673 30.896V18.6667C34.6673 17.9594 34.3864 17.2811 33.8863 16.781C33.3862 16.281 32.7079 16 32.0007 16Z" fill="#FF7A00"/>
</g>
<defs>
<clipPath id="clip0_290_4616">
<rect width="64" height="64" fill="white"/>
</clipPath>
</defs>
</svg>
