<svg width="64" height="64" viewBox="0 0 64 64" fill="none" xmlns="http://www.w3.org/2000/svg">
<g clip-path="url(#clip0_290_4694)">
<path d="M13.3333 16C13.3333 14.5253 14.528 13.3333 16 13.3333H24C25.472 13.3333 26.6667 14.5253 26.6667 16C26.6667 17.4747 25.472 18.6667 24 18.6667H16C14.528 18.6667 13.3333 17.4747 13.3333 16ZM29.3333 24H16C14.528 24 13.3333 25.192 13.3333 26.6667C13.3333 28.1413 14.528 29.3333 16 29.3333H29.3333C30.8053 29.3333 32 28.1413 32 26.6667C32 25.192 30.8053 24 29.3333 24ZM29.3333 34.6667H16C14.528 34.6667 13.3333 35.8587 13.3333 37.3333C13.3333 38.808 14.528 40 16 40H29.3333C30.8053 40 32 38.808 32 37.3333C32 35.8587 30.8053 34.6667 29.3333 34.6667ZM63.8373 12.4187C63.4533 11.3653 62.4507 10.6667 61.3333 10.6667H53.3307L50.4987 2.72C50.1093 1.67733 49.112 0.984 48 0.984C46.888 0.984 45.888 1.67733 45.5013 2.72L42.6693 10.6667H34.6667C33.5493 10.6667 32.5493 11.3653 32.1653 12.4133C31.7787 13.464 32.0907 14.64 32.944 15.3653L39.2827 20.5253L36.7733 28.568C36.4347 29.648 36.8133 30.824 37.7173 31.504C38.1893 31.8587 38.752 32.0373 39.3173 32.0373C39.8347 32.0373 40.352 31.888 40.8 31.5867L48.0213 26.7547L55.3653 31.536C56.312 32.152 57.5493 32.104 58.448 31.4133C59.3467 30.7227 59.7093 29.5387 59.352 28.464L56.7413 20.5173L63.0507 15.3787C63.9067 14.656 64.2213 13.4773 63.8373 12.424V12.4187ZM58.6667 53.3333V54.6667C58.6667 59.8133 54.48 64 49.3333 64H9.33067C4.18667 64 0 59.8133 0 54.6667V13.3333C0 5.98133 5.98133 0 13.3333 0H34.6667C36.1387 0 37.3333 1.192 37.3333 2.66667C37.3333 4.14133 36.1387 5.33333 34.6667 5.33333H13.3333C8.92267 5.33333 5.33333 8.92267 5.33333 13.3333V54.6667C5.33333 56.872 7.128 58.6667 9.33333 58.6667C11.5387 58.6667 13.3333 56.872 13.3333 54.6667V53.3333C13.3333 48.9227 16.9227 45.3333 21.3333 45.3333H45.3333V37.3333C45.3333 35.8587 46.528 34.6667 48 34.6667C49.472 34.6667 50.6667 35.8587 50.6667 37.3333V45.3333C55.0773 45.3333 58.6667 48.9227 58.6667 53.3333ZM53.3333 53.3333C53.3333 51.8613 52.136 50.6667 50.6667 50.6667H21.3333C19.864 50.6667 18.6667 51.8613 18.6667 53.3333V54.6667C18.6667 56.096 18.3413 57.4533 17.7653 58.6667H49.3333C51.5387 58.6667 53.3333 56.872 53.3333 54.6667V53.3333Z" fill="#EE7200"/>
</g>
<defs>
<clipPath id="clip0_290_4694">
<rect width="64" height="64" fill="white"/>
</clipPath>
</defs>
</svg>
