<svg width="64" height="64" viewBox="0 0 64 64" fill="none" xmlns="http://www.w3.org/2000/svg">
<g clip-path="url(#clip0_290_4700)">
<path d="M63.9994 60.2294L47.3008 43.5307C51.6384 38.2256 53.7711 31.4563 53.2577 24.6229C52.7442 17.7894 49.624 11.4148 44.5423 6.81742C39.4606 2.22006 32.8063 -0.248258 25.9558 -0.0769736C19.1053 0.0943113 12.5826 2.89209 7.73705 7.73766C2.89148 12.5832 0.0937009 19.1059 -0.0775839 25.9564C-0.248869 32.8069 2.21945 39.4612 6.81681 44.5429C11.4142 49.6246 17.7888 52.7449 24.6222 53.2583C31.4557 53.7717 38.225 51.639 43.5301 47.3014L60.2288 64L63.9994 60.2294ZM26.6661 48C22.4468 48 18.3222 46.7489 14.8139 44.4047C11.3057 42.0606 8.57132 38.7288 6.95665 34.8306C5.34198 30.9325 4.91951 26.643 5.74267 22.5048C6.56582 18.3665 8.59762 14.5653 11.5811 11.5818C14.5647 8.59823 18.3659 6.56643 22.5042 5.74328C26.6424 4.92012 30.9318 5.3426 34.83 6.95726C38.7282 8.57193 42.06 11.3063 44.4041 14.8145C46.7482 18.3228 47.9994 22.4474 47.9994 26.6667C47.9931 32.3227 45.7434 37.7452 41.744 41.7446C37.7446 45.744 32.3221 47.9937 26.6661 48Z" fill="#EE7200"/>
</g>
<defs>
<clipPath id="clip0_290_4700">
<rect width="64" height="64" fill="white"/>
</clipPath>
</defs>
</svg>
