<svg width="64" height="64" viewBox="0 0 64 64" fill="none" xmlns="http://www.w3.org/2000/svg">
<g clip-path="url(#clip0_290_4689)">
<path d="M42.6667 27.1893V13.856L21.3333 27.1893V5.33333H24V0H0V5.33333H2.66667V56C2.66667 60.4107 6.256 64 10.6667 64H56C60.4107 64 64 60.4107 64 56V13.856L42.6667 27.1893ZM58.6667 56C58.6667 57.4693 57.472 58.6667 56 58.6667H10.6667C9.19467 58.6667 8 57.4693 8 56V5.33333H16V50.6667H21.3333V33.48L37.3333 23.48V36.8133L58.6667 23.48V56ZM29.3333 42.6667H37.3333V50.6667H29.3333V42.6667ZM50.6667 50.6667H42.6667V42.6667H50.6667V50.6667Z" fill="#EE7200"/>
</g>
<defs>
<clipPath id="clip0_290_4689">
<rect width="64" height="64" fill="white"/>
</clipPath>
</defs>
</svg>
