<svg width="64" height="64" viewBox="0 0 64 64" fill="none" xmlns="http://www.w3.org/2000/svg">
<g clip-path="url(#clip0_290_4632)">
<path d="M45.334 48C45.334 45.8783 44.4911 43.8434 42.9908 42.3431C41.4905 40.8429 39.4557 40 37.334 40C35.2123 40 33.1774 40.8429 31.6771 42.3431C30.1768 43.8434 29.334 45.8783 29.334 48H34.6673C34.6673 47.2928 34.9483 46.6145 35.4484 46.1144C35.9485 45.6143 36.6267 45.3333 37.334 45.3333C38.0412 45.3333 38.7195 45.6143 39.2196 46.1144C39.7197 46.6145 40.0007 47.2928 40.0007 48C40.0007 49.3333 37.734 51.0347 35.734 52.5333C32.734 54.784 29.334 57.3333 29.334 61.3333V64H45.334V58.6667H36.5607C37.2833 58.0373 38.1313 57.4027 38.934 56.8C41.934 54.5493 45.334 52 45.334 48Z" fill="#FF7A00"/>
<path d="M58.6667 50.6667H53.3333V40H48V50.6667C48 52.0812 48.5619 53.4377 49.5621 54.4379C50.5623 55.4381 51.9188 56 53.3333 56H58.6667V64H64V40H58.6667V50.6667Z" fill="#FF7A00"/>
<path d="M34.666 16H29.3327V29.3333H18.666V34.6667H34.666V16Z" fill="#FF7A00"/>
<path d="M58.6663 5.33333V14.3307C55.8031 10.0006 51.9292 6.43232 47.3788 3.93403C42.8284 1.43574 37.7384 0.0824648 32.5481 -0.00897178C27.3579 -0.100408 22.2233 1.07274 17.5878 3.40921C12.9522 5.74567 8.955 9.17523 5.94115 13.4018C2.92729 17.6284 0.987394 22.525 0.288923 27.6689C-0.409547 32.8127 0.1544 38.0493 1.93208 42.9265C3.70975 47.8037 6.64774 52.175 10.4924 55.663C14.3371 59.1509 18.9729 61.6508 23.9996 62.9467V57.4373C19.8537 56.1478 16.0855 53.8654 13.0222 50.7885C9.95885 47.7117 7.69315 43.9333 6.42191 39.7818C5.15068 35.6303 4.91235 31.2312 5.72763 26.9667C6.54292 22.7021 8.38716 18.7011 11.1001 15.3113C13.8131 11.9215 17.3127 9.24539 21.295 7.51547C25.2773 5.78555 29.6217 5.05416 33.9509 5.38483C38.28 5.7155 42.463 7.09823 46.1363 9.41289C49.8097 11.7276 52.8623 14.9041 55.0289 18.6667H45.3329V24H58.6663C60.0807 24 61.4373 23.4381 62.4375 22.4379C63.4377 21.4377 63.9996 20.0812 63.9996 18.6667V5.33333H58.6663Z" fill="#FF7A00"/>
</g>
<defs>
<clipPath id="clip0_290_4632">
<rect width="64" height="64" fill="white"/>
</clipPath>
</defs>
</svg>
